<svg width="19" height="19" viewBox="0 0 19 19" fill="none" xmlns="http://www.w3.org/2000/svg">
<path d="M9.49999 14.6029V3.55064M9.49999 3.55064C9.49997 3.15941 9.58994 2.77342 9.76293 2.42253C9.93593 2.07164 10.1873 1.76526 10.4976 1.52709C10.8079 1.28892 11.1689 1.12534 11.5525 1.04901C11.9362 0.972684 12.3322 0.985651 12.71 1.08691C13.0879 1.18817 13.4373 1.375 13.7314 1.63296C14.0255 1.89092 14.2563 2.21309 14.406 2.57455C14.5557 2.936 14.6202 3.32705 14.5946 3.71744C14.569 4.10783 14.454 4.48709 14.2584 4.8259M9.49999 3.55064C9.50001 3.15941 9.41004 2.77342 9.23705 2.42253C9.06406 2.07164 8.81268 1.76526 8.50236 1.52709C8.19204 1.28892 7.8311 1.12534 7.44746 1.04901C7.06382 0.972684 6.66777 0.985651 6.28994 1.08691C5.91211 1.18817 5.56264 1.375 5.26856 1.63296C4.97447 1.89092 4.74367 2.21309 4.59399 2.57455C4.44431 2.936 4.37977 3.32705 4.40537 3.71744C4.43097 4.10783 4.54601 4.48709 4.74161 4.8259M12.05 10.352C11.3146 10.137 10.6686 9.68943 10.2089 9.07635C9.74918 8.46326 9.50045 7.71769 9.49999 6.95134C9.49953 7.71769 9.25081 8.46326 8.79108 9.07635C8.33135 9.68943 7.68538 10.137 6.94995 10.352" stroke="#0B4989" stroke-width="2" stroke-linecap="round" stroke-linejoin="round"/>
<path d="M14.5977 3.65686C15.0973 3.78535 15.5611 4.02588 15.9541 4.36022C16.347 4.69456 16.6587 5.11395 16.8656 5.58663C17.0725 6.0593 17.1692 6.57287 17.1482 7.08843C17.1273 7.60399 16.9893 8.10803 16.7448 8.56237" stroke="#0B4989" stroke-width="2" stroke-linecap="round" stroke-linejoin="round"/>
<path d="M14.6001 14.6029C15.3485 14.6029 16.0761 14.3558 16.6698 13.9001C17.2636 13.4444 17.6904 12.8055 17.8842 12.0824C18.0779 11.3593 18.0276 10.5925 17.7412 9.9009C17.4548 9.20929 16.9483 8.63153 16.3001 8.2572" stroke="#0B4989" stroke-width="2" stroke-linecap="round" stroke-linejoin="round"/>
<path d="M16.2719 14.1633C16.3315 14.6243 16.2959 15.0926 16.1674 15.5394C16.039 15.9861 15.8203 16.4017 15.5249 16.7606C15.2295 17.1195 14.8637 17.414 14.4501 17.6259C14.0365 17.8378 13.5838 17.9627 13.1201 17.9928C12.6563 18.0229 12.1913 17.9576 11.7537 17.8009C11.3162 17.6442 10.9154 17.3995 10.5761 17.0818C10.2369 16.7641 9.96633 16.3802 9.78121 15.9539C9.59609 15.5275 9.50032 15.0677 9.49982 14.6029C9.49933 15.0677 9.40356 15.5275 9.21844 15.9539C9.03331 16.3802 8.76277 16.7641 8.4235 17.0818C8.08424 17.3995 7.68346 17.6442 7.24591 17.8009C6.80837 17.9576 6.34336 18.0229 5.87959 17.9928C5.41582 17.9627 4.96315 17.8378 4.54952 17.6259C4.1359 17.414 3.77011 17.1195 3.47474 16.7606C3.17937 16.4017 2.96069 15.9861 2.83221 15.5394C2.70373 15.0926 2.66818 14.6243 2.72776 14.1633" stroke="#0B4989" stroke-width="2" stroke-linecap="round" stroke-linejoin="round"/>
<path d="M4.39991 14.6029C3.65147 14.6029 2.92395 14.3558 2.33018 13.9001C1.73641 13.4444 1.30957 12.8055 1.11586 12.0824C0.922145 11.3593 0.972382 10.5925 1.25878 9.9009C1.54518 9.20929 2.05173 8.63153 2.69988 8.2572" stroke="#0B4989" stroke-width="2" stroke-linecap="round" stroke-linejoin="round"/>
<path d="M4.40249 3.65686C3.90285 3.78535 3.439 4.02588 3.04606 4.36022C2.65312 4.69456 2.3414 5.11395 2.13451 5.58663C1.92762 6.0593 1.83099 6.57287 1.85192 7.08843C1.87286 7.60399 2.01082 8.10803 2.25535 8.56237" stroke="#0B4989" stroke-width="2" stroke-linecap="round" stroke-linejoin="round"/>
</svg>
