<svg width="17" height="17" viewBox="0 0 17 17" fill="none" xmlns="http://www.w3.org/2000/svg">
<path d="M6.37487 4.95825V1.57312C6.24411 1.6404 6.12463 1.72762 6.0207 1.83166L3.24829 4.60408C3.14425 4.708 3.05702 4.82749 2.98975 4.95825H6.37487Z" fill="#0B4989"/>
<path fill-rule="evenodd" clip-rule="evenodd" d="M7.79158 4.95829V1.41663H12.7499C13.1256 1.41663 13.486 1.56588 13.7517 1.83156C14.0173 2.09723 14.1666 2.45757 14.1666 2.83329V14.1666C14.1666 14.5423 14.0173 14.9027 13.7517 15.1684C13.486 15.434 13.1256 15.5833 12.7499 15.5833H4.24992C3.8742 15.5833 3.51386 15.434 3.24818 15.1684C2.98251 14.9027 2.83325 14.5423 2.83325 14.1666V6.37496H6.37492C6.75064 6.37496 7.11098 6.2257 7.37665 5.96003C7.64233 5.69435 7.79158 5.33402 7.79158 4.95829ZM11.1257 9.00075C11.2547 8.86716 11.3261 8.68823 11.3245 8.50251C11.3229 8.31679 11.2484 8.13913 11.1171 8.0078C10.9858 7.87647 10.8081 7.80197 10.6224 7.80036C10.4366 7.79874 10.2577 7.87014 10.1241 7.99917L7.79158 10.3317L6.87571 9.41583C6.74212 9.28681 6.56319 9.21541 6.37747 9.21702C6.19175 9.21864 6.01409 9.29313 5.88276 9.42446C5.75142 9.55579 5.67693 9.73345 5.67532 9.91918C5.6737 10.1049 5.7451 10.2838 5.87413 10.4174L7.29079 11.8341C7.42363 11.9669 7.60376 12.0415 7.79158 12.0415C7.97941 12.0415 8.15954 11.9669 8.29238 11.8341L11.1257 9.00075Z" fill="#0B4989"/>
</svg>
