<svg width="19" height="19" viewBox="0 0 19 19" fill="none" xmlns="http://www.w3.org/2000/svg">
<g clip-path="url(#clip0_132_358)">
<path d="M0.89069 2.07812C0.89069 1.58457 1.28776 1.1875 1.78131 1.1875H2.96881C3.46237 1.1875 3.85944 1.58457 3.85944 2.07812V6.53125H4.45319C4.94674 6.53125 5.34381 6.92832 5.34381 7.42188C5.34381 7.91543 4.94674 8.3125 4.45319 8.3125H1.48444C0.990885 8.3125 0.593815 7.91543 0.593815 7.42188C0.593815 6.92832 0.990885 6.53125 1.48444 6.53125H2.07819V2.96875H1.78131C1.28776 2.96875 0.89069 2.57168 0.89069 2.07812ZM3.21745 12.6617C2.97624 12.3871 2.53835 12.4057 2.32682 12.7063L1.9112 13.2814C1.62546 13.6822 1.06881 13.775 0.668033 13.4893C0.267252 13.2035 0.174479 12.6469 0.460221 12.2461L0.872135 11.6672C1.75163 10.4352 3.55514 10.3461 4.55338 11.4854C5.34381 12.3908 5.32526 13.7453 4.51256 14.6285L3.22116 16.0312H4.45319C4.94674 16.0312 5.34381 16.4283 5.34381 16.9219C5.34381 17.4154 4.94674 17.8125 4.45319 17.8125H1.18756C0.835026 17.8125 0.512174 17.6047 0.371158 17.2781C0.230143 16.9516 0.293229 16.5768 0.530729 16.317L3.2026 13.4225C3.39928 13.2072 3.40299 12.8807 3.21374 12.6617H3.21745ZM8.31256 2.375H17.8126C18.4694 2.375 19.0001 2.90566 19.0001 3.5625C19.0001 4.21934 18.4694 4.75 17.8126 4.75H8.31256C7.65573 4.75 7.12506 4.21934 7.12506 3.5625C7.12506 2.90566 7.65573 2.375 8.31256 2.375ZM8.31256 8.3125H17.8126C18.4694 8.3125 19.0001 8.84316 19.0001 9.5C19.0001 10.1568 18.4694 10.6875 17.8126 10.6875H8.31256C7.65573 10.6875 7.12506 10.1568 7.12506 9.5C7.12506 8.84316 7.65573 8.3125 8.31256 8.3125ZM8.31256 14.25H17.8126C18.4694 14.25 19.0001 14.7807 19.0001 15.4375C19.0001 16.0943 18.4694 16.625 17.8126 16.625H8.31256C7.65573 16.625 7.12506 16.0943 7.12506 15.4375C7.12506 14.7807 7.65573 14.25 8.31256 14.25Z" fill="#0B4989"/>
</g>
<defs>
<clipPath id="clip0_132_358">
<rect width="19" height="19" fill="white"/>
</clipPath>
</defs>
</svg>
